<?xml version="1.0" standalone="no"?>
<!DOCTYPE svg PUBLIC "-//W3C//DTD SVG 20010904//EN"
 "http://www.w3.org/TR/2001/REC-SVG-20010904/DTD/svg10.dtd">
<svg version="1.0" xmlns="http://www.w3.org/2000/svg"
 width="32.000000pt" height="32.000000pt" viewBox="0 0 32.000000 32.000000"
 preserveAspectRatio="xMidYMid meet">

<g transform="translate(0.000000,32.000000) scale(0.100000,-0.100000)"
fill="#000000" stroke="none">
<path d="M0 160 l0 -160 160 0 160 0 0 160 0 160 -160 0 -160 0 0 -160z m125
80 c21 -8 26 -16 24 -38 -1 -15 4 -39 11 -54 16 -34 8 -56 -25 -68 -34 -13
-82 -13 -90 0 -3 6 -1 10 4 10 16 0 14 140 -1 141 -15 1 21 17 39 18 6 1 24
-4 38 -9z m105 -52 c0 -9 3 -9 12 0 19 19 38 14 38 -9 0 -17 -3 -19 -13 -10
-10 8 -17 7 -25 -1 -16 -16 -15 -75 1 -81 6 -3 -1 -6 -18 -6 l-30 -1 2 57 c1
32 2 59 2 61 2 9 31 0 31 -10z"/>
<path d="M80 200 c0 -33 7 -37 35 -16 23 16 14 46 -15 46 -16 0 -20 -7 -20
-30z"/>
<path d="M80 126 c0 -32 3 -36 25 -36 47 0 44 61 -4 68 -18 3 -21 -1 -21 -32z"/>
</g>
</svg>
